<svg width="20" height="20" viewBox="0 0 20 20" fill="none" xmlns="http://www.w3.org/2000/svg">
<g clip-path="url(#clip0_79_2346)">
<path d="M10.5263 6.00724V15.2632C10.5263 15.5539 10.2908 15.7895 10 15.7895C9.70921 15.7895 9.47368 15.5539 9.47368 15.2632V6.00724L6.16184 9.31908C5.95658 9.52434 5.62303 9.52434 5.41776 9.31908C5.2125 9.11382 5.2125 8.78026 5.41776 8.575L9.62829 4.36447C9.83355 4.15855 10.1671 4.15855 10.3724 4.36447L14.5829 8.575C14.7882 8.78026 14.7882 9.11382 14.5829 9.31908C14.377 9.52434 14.0441 9.52434 13.8388 9.31908L10.527 6.00724H10.5263ZM20 10C20 15.523 15.5224 20 10 20C4.47763 20 0 15.523 0 10C0 4.47697 4.47697 0 10 0C15.523 0 20 4.47697 20 10ZM18.9474 10C18.9474 5.05855 14.9414 1.05263 10 1.05263C5.05855 1.05263 1.05263 5.05855 1.05263 10C1.05263 14.9414 5.05855 18.9474 10 18.9474C14.9414 18.9474 18.9474 14.9414 18.9474 10Z" fill="white"/>
</g>
<defs>
<clipPath id="clip0_79_2346">
<rect width="20" height="20" fill="white"/>
</clipPath>
</defs>
</svg>
