<svg xmlns="http://www.w3.org/2000/svg" width="24" height="24" viewBox="0 0 24 24">
  <path id="icon" d="M839.673,686.57a12,12,0,1,0,12,12A12.014,12.014,0,0,0,839.673,686.57Zm9.064,7.619H844.51a19.52,19.52,0,0,0-1.393-5.081A10.127,10.127,0,0,1,848.737,694.189Zm1,4.381a10.019,10.019,0,0,1-.3,2.449h-4.713c.056-.759.089-1.568.089-2.437s-.034-1.7-.092-2.463h4.716A10.032,10.032,0,0,1,849.741,698.571Zm-20.138,0a10.059,10.059,0,0,1,.3-2.451h4.717c-.058.767-.092,1.585-.092,2.463s.033,1.678.089,2.437h-4.714A10.045,10.045,0,0,1,829.6,698.571Zm6.858.012c0-.884.036-1.7.1-2.463h6.227c.062.759.1,1.579.1,2.463s-.035,1.686-.1,2.437h-6.232C836.5,700.269,836.461,699.458,836.461,698.583Zm4.167-10.035a14.281,14.281,0,0,1,1.926,5.642h-5.765a14.3,14.3,0,0,1,1.925-5.642c.316-.03.635-.047.958-.047S840.313,688.518,840.629,688.548Zm-4.4.561a19.545,19.545,0,0,0-1.392,5.081h-4.227A10.126,10.126,0,0,1,836.226,689.108Zm-5.619,13.843h4.221a19.538,19.538,0,0,0,1.375,5.073A10.125,10.125,0,0,1,830.607,702.951Zm8.083,5.64a14.28,14.28,0,0,1-1.908-5.64h5.778a14.276,14.276,0,0,1-1.909,5.64c-.323.031-.65.048-.98.048S839.014,708.622,838.691,708.591Zm4.449-.567a19.549,19.549,0,0,0,1.376-5.073h4.221A10.128,10.128,0,0,1,843.14,708.024Z" transform="translate(-827.672 -686.57)" fill="#97a0aa"/>
</svg>
