<svg width="170" height="45" viewBox="0 0 170 45" fill="none" xmlns="http://www.w3.org/2000/svg">
<g clip-path="url(#clip0_79_2366)">
<path d="M34.4533 21.2955C30.7927 18.7568 25.7833 19.6748 23.2447 23.3241C23.1653 23.4488 23.086 23.5621 23.0067 23.6868C20.6153 27.4381 15.64 28.5374 11.9 26.1461C10.2113 25.0694 8.98733 23.4035 8.466 21.4768C8.466 21.4768 8.45467 21.4201 8.44333 21.3861C8.432 21.3521 8.432 21.3181 8.42067 21.2841C8.11467 20.2414 7.97867 19.1648 8.00133 18.0881C8.00133 10.8801 15.402 2.84478 26.0667 2.84478C34.374 2.91278 41.8087 8.03545 44.8347 15.7761C44.8007 15.6854 44.778 15.6061 44.7553 15.5268C40.6187 3.52478 27.54 -2.86722 15.5267 1.24678C6.24467 4.44278 0 13.1694 0 22.9954C0 34.3401 8.18267 44.0528 19.5387 44.0528C27.4947 44.3134 34.7253 39.4514 37.468 31.9828C39.1 28.1521 37.8307 23.7094 34.442 21.2955" fill="#002B51"/>
<path d="M44.9704 16.2293C42.0804 8.25065 34.5324 2.91265 26.0438 2.85599C15.3904 2.85599 7.97843 10.8913 7.97843 18.0993C7.94443 19.176 8.09177 20.264 8.39777 21.2953C8.26177 20.7627 8.19377 20.2073 8.19377 19.652C8.19377 12.138 15.7191 6.93599 23.4484 6.93599C33.9204 6.93599 42.4091 15.4133 42.4091 25.8853C42.4091 33.8187 37.9324 41.0607 30.8378 44.608C42.3524 40.426 48.5744 27.948 44.9931 16.2293" fill="#DA0021"/>
<path d="M60.8718 3.84199V2.73132H62.6171V3.84199H65.0424V5.20199H58.1631V3.84199H60.8604H60.8718ZM64.7591 8.31866C64.7591 8.69266 64.6798 9.05532 64.5211 9.39532C64.3624 9.72399 64.1358 10.03 63.8638 10.2793C63.5918 10.54 63.2631 10.744 62.9118 10.88C62.1638 11.1747 61.3364 11.1747 60.5884 10.88C60.2371 10.744 59.9198 10.54 59.6364 10.2793C59.3644 10.03 59.1491 9.73532 58.9791 9.39532C58.8204 9.05532 58.7298 8.69266 58.7411 8.31866C58.7411 7.94466 58.8204 7.57066 58.9791 7.23066C59.1378 6.89066 59.3644 6.59599 59.6364 6.34666C59.9084 6.08599 60.2371 5.89332 60.5884 5.74599C61.3364 5.45132 62.1638 5.45132 62.9118 5.74599C63.2631 5.88199 63.5804 6.08599 63.8638 6.34666C64.1358 6.59599 64.3624 6.90199 64.5211 7.23066C64.6798 7.57066 64.7591 7.93332 64.7591 8.30732V8.31866ZM63.2291 8.30732C63.2291 7.92199 63.0704 7.54799 62.7984 7.28732C62.5264 7.00399 62.1524 6.84532 61.7558 6.85666C61.3704 6.85666 60.9964 7.00399 60.7244 7.28732C60.4524 7.55932 60.2938 7.92199 60.2938 8.30732C60.2938 8.69266 60.4411 9.05532 60.7244 9.32732C60.9964 9.61066 61.3704 9.75799 61.7558 9.74666C62.1411 9.74666 62.5264 9.59932 62.7984 9.32732C63.0818 9.06666 63.2404 8.69266 63.2291 8.30732ZM69.0204 13.668C69.0204 14.0647 68.9298 14.45 68.7598 14.8127C68.5898 15.164 68.3631 15.4927 68.0798 15.7647C67.7851 16.0367 67.4338 16.2633 67.0598 16.422C66.6744 16.5807 66.2551 16.6713 65.8358 16.66C65.4164 16.66 64.9971 16.5807 64.6004 16.422C64.2264 16.2633 63.8751 16.048 63.5804 15.7647C63.2971 15.4927 63.0704 15.1753 62.9004 14.8127C62.7304 14.4613 62.6398 14.0647 62.6398 13.668C62.6398 13.2713 62.7304 12.8747 62.9004 12.512C63.0704 12.1493 63.2971 11.832 63.5804 11.56C63.8751 11.288 64.2264 11.0613 64.6004 10.9027C64.9971 10.744 65.4164 10.6533 65.8358 10.6647C66.2551 10.6647 66.6744 10.744 67.0598 10.9027C67.4338 11.0613 67.7851 11.2767 68.0798 11.56C68.3631 11.832 68.5898 12.1607 68.7598 12.512C68.9298 12.8747 69.0204 13.2713 69.0204 13.668ZM67.4111 13.6567C67.4111 13.2373 67.2411 12.8407 66.9464 12.546C66.6518 12.24 66.2438 12.07 65.8244 12.07C65.4051 12.07 64.9971 12.24 64.7024 12.546C64.4078 12.8407 64.2378 13.2373 64.2378 13.6567C64.2378 14.076 64.3964 14.4727 64.7024 14.756C64.9971 15.062 65.3938 15.2207 65.8244 15.2207C66.2438 15.2207 66.6518 15.062 66.9464 14.756C67.2524 14.4727 67.4224 14.076 67.4224 13.6567H67.4111ZM67.3771 10.2567H65.8584V3.01466H67.3771V5.88199H68.7258V3.00332H70.3011V10.4267H68.7258V7.37799H67.3771V10.2453V10.2567Z" fill="white"/>
<path d="M72.2164 4.79399V3.38866H79.8097V4.80533H76.5797L79.9457 8.91933L78.7897 9.85999L76.0924 6.49399L73.4064 10.0867L72.2051 9.11199L75.5597 4.80533H72.2164V4.79399ZM82.7111 13.4073C82.7111 13.838 82.6204 14.2687 82.4391 14.654C82.2577 15.0393 82.0197 15.3793 81.7137 15.674C81.3964 15.9687 81.0224 16.2067 80.6144 16.3653C80.1951 16.5353 79.7417 16.626 79.2884 16.626C78.8351 16.626 78.3817 16.5353 77.9511 16.3653C77.5431 16.2067 77.1691 15.9687 76.8404 15.674C76.5344 15.3793 76.2964 15.0393 76.1151 14.654C75.9337 14.2687 75.8431 13.838 75.8431 13.4073C75.8431 12.9767 75.9337 12.546 76.1151 12.1493C76.2964 11.764 76.5344 11.4127 76.8404 11.118C77.1691 10.8233 77.5431 10.5853 77.9511 10.4267C78.3704 10.2567 78.8237 10.166 79.2884 10.166C79.7417 10.166 80.1951 10.2567 80.6144 10.4267C81.0224 10.5853 81.3964 10.8233 81.7137 11.118C82.0197 11.4127 82.2691 11.764 82.4391 12.1493C82.6204 12.546 82.7224 12.9767 82.7224 13.4073H82.7111ZM81.1017 13.3847C81.1017 12.8973 80.9091 12.4327 80.5577 12.104C80.2177 11.7527 79.7531 11.56 79.2657 11.56C78.2684 11.56 77.4524 12.376 77.4411 13.3847C77.4411 13.8607 77.6337 14.3253 77.9851 14.654C78.3251 14.994 78.7897 15.1867 79.2657 15.1867C79.7531 15.1867 80.2177 15.0053 80.5577 14.654C80.9091 14.3253 81.1131 13.8607 81.1131 13.3847H81.1017ZM82.1897 9.99599V7.12866H79.7304V5.72333H82.1897V3.00333H83.8331V10.0073H82.1897V9.99599Z" fill="white"/>
<path d="M93.2848 6.69799C93.2848 7.18533 93.1828 7.66133 92.9901 8.09199C92.7975 8.52266 92.5141 8.91933 92.1741 9.24799C91.8228 9.57666 91.4148 9.83733 90.9728 10.0187C90.0435 10.404 89.0008 10.404 88.0715 10.0187C87.6408 9.83733 87.2328 9.57666 86.8928 9.24799C86.5528 8.91933 86.2808 8.52266 86.0768 8.09199C85.6801 7.20799 85.6801 6.18799 86.0768 5.30399C86.2695 4.87333 86.5528 4.47666 86.8928 4.14799C87.2441 3.81933 87.6408 3.55866 88.0828 3.37733C89.0121 2.99199 90.0548 2.99199 90.9841 3.37733C91.4261 3.55866 91.8228 3.81933 92.1741 4.14799C92.5141 4.47666 92.7861 4.87333 92.9901 5.30399C93.1828 5.74599 93.2848 6.22199 93.2848 6.69799ZM88.2641 11.5373V14.4953H97.1495V15.946H86.6208V11.526H88.2641V11.5373ZM91.7095 6.72066C91.7095 6.43733 91.6528 6.14266 91.5395 5.88199C91.3241 5.36066 90.9048 4.94133 90.3835 4.72599C90.1228 4.61266 89.8395 4.54466 89.5561 4.55599C89.2728 4.55599 88.9895 4.61266 88.7175 4.72599C88.4568 4.83933 88.2188 4.99799 88.0148 5.19066C87.8221 5.39466 87.6635 5.63266 87.5501 5.88199C87.4368 6.14266 87.3688 6.42599 87.3801 6.72066C87.3801 7.00399 87.4368 7.28733 87.5501 7.54799C87.7655 8.06933 88.1848 8.48866 88.7061 8.70399C88.9668 8.81733 89.2501 8.88533 89.5448 8.87399C89.8281 8.87399 90.1115 8.81733 90.3721 8.70399C90.8935 8.48866 91.3128 8.06933 91.5281 7.54799C91.6415 7.28733 91.7095 7.00399 91.7095 6.72066ZM96.8208 11.4693H95.1775V3.00333H96.8208V5.88199H98.7135V7.50266H96.8208V11.458V11.4693Z" fill="white"/>
<path d="M99.8922 4.79399V3.38866H107.474V4.80533H104.256L107.61 9.74666L106.364 10.5853L103.757 6.60733L101.15 10.6873L99.8809 9.83733L103.224 4.80533H99.9035L99.8922 4.79399ZM100.799 15.9573V11.5373H102.442V14.4953H111.634V15.946H100.799V15.9573ZM109.877 11.4693V7.57066H107.418V6.11999H109.877V3.00333H111.52V11.4693H109.877Z" fill="white"/>
<path d="M113.775 11.3673H125.913V12.818H120.666V16.218H119.011V12.818H113.775V11.3673ZM116.371 4.90731H123.318V3.22998H124.939V9.58798H114.739V3.22998H116.359V4.90731H116.371ZM123.318 6.33531H116.371V8.15998H123.318V6.33531Z" fill="white"/>
<path d="M69.5871 26.894C69.5871 27.54 69.4511 28.1747 69.1904 28.7527C68.6691 29.9087 67.7284 30.8267 66.5497 31.314C65.3144 31.824 63.9317 31.824 62.6964 31.314C62.1184 31.076 61.5857 30.7247 61.1211 30.2827C60.6791 29.8407 60.3164 29.3307 60.0557 28.7527C59.5231 27.574 59.5231 26.214 60.0557 25.0353C60.3164 24.4687 60.6791 23.9473 61.1211 23.5053C61.5744 23.0633 62.1071 22.712 62.6964 22.474C63.9317 21.964 65.3144 21.964 66.5497 22.474C67.1277 22.712 67.6604 23.0633 68.1251 23.5053C68.5784 23.9473 68.9411 24.4573 69.1904 25.0353C69.4511 25.6247 69.5871 26.2593 69.5871 26.894ZM67.5924 26.894C67.5924 26.4973 67.5244 26.0893 67.3657 25.7267C67.2184 25.364 67.0031 25.0353 66.7424 24.7633C66.4704 24.4913 66.1417 24.276 65.7791 24.1173C65.0311 23.8113 64.1924 23.8113 63.4557 24.1173C63.0931 24.2647 62.7757 24.48 62.4924 24.7633C62.2317 25.0467 62.0164 25.3753 61.8691 25.7267C61.5631 26.4747 61.5631 27.3247 61.8691 28.0727C62.0164 28.4353 62.2317 28.764 62.4924 29.036C62.7644 29.308 63.0931 29.5233 63.4557 29.682C64.2038 29.988 65.0424 29.988 65.7791 29.682C66.1417 29.5347 66.4591 29.308 66.7424 29.036C67.0031 28.7527 67.2184 28.424 67.3657 28.0727C67.5131 27.6987 67.5924 27.302 67.5924 26.9053V26.894ZM72.1824 20.1053H74.1884V36.3007H72.1711V20.1053H72.1824Z" fill="white"/>
<path d="M83.3912 31.1893V29.7727H76.9766V28.0047H91.8572V29.7727H85.4199V31.1893H90.6672V36.3347H88.6612V32.9347H77.9852V31.1893H83.4026H83.3912ZM88.6726 21.7033V20.1733H90.6672V26.724H78.1666V20.1733H80.1612V21.7033H88.6839H88.6726ZM88.6726 24.9787V23.4373H80.1499V24.9787H88.6726Z" fill="white"/>
<path d="M95.9373 28.7527L94.26 27.9933L95.6766 21.5787H102.386V23.3467H97.3313L96.6966 26.3273C97.2973 25.9193 98.0113 25.7153 98.7366 25.7267C101.117 25.6587 103.089 27.54 103.157 29.92C103.191 31.144 102.703 32.334 101.808 33.1727C100.38 34.4307 98.3853 34.816 96.5946 34.17C96.0846 33.9773 95.6086 33.7053 95.178 33.3653C94.566 32.8667 94.1013 32.2207 93.8066 31.484L95.6653 30.532C95.8466 31.0647 96.1413 31.5633 96.538 31.96C97.014 32.4473 97.66 32.708 98.34 32.708C99.0426 32.708 99.7226 32.4473 100.221 31.9487C100.731 31.4387 101.015 30.736 101.003 30.0107C101.003 29.308 100.731 28.6393 100.244 28.152C99.7453 27.6533 99.054 27.3927 98.3513 27.4267C97.3993 27.5173 96.5266 28.0047 95.9373 28.764V28.7527Z" fill="white"/>
<path d="M106.319 29.3193V20.944H118.82V22.712H108.325V27.5513H118.854V29.3193H113.572V33.3427H120.01V35.1333H105.129V33.3427H111.544V29.3193H106.319Z" fill="white"/>
<path d="M132.781 31.3933H128.316V35.7793H126.31V31.3933H122.015V29.6027H132.781V31.3933ZM131.671 24.4913C131.671 25.0353 131.557 25.5793 131.331 26.078C131.104 26.5653 130.787 27.0073 130.39 27.3813C129.982 27.7553 129.506 28.0613 128.996 28.2653C127.908 28.696 126.695 28.696 125.607 28.2653C125.097 28.0613 124.621 27.7553 124.213 27.3813C123.817 27.0073 123.499 26.5653 123.273 26.078C122.808 25.0693 122.808 23.9247 123.273 22.916C123.499 22.4287 123.817 21.9867 124.213 21.6127C125.959 19.992 128.645 19.992 130.39 21.6127C130.787 21.9867 131.104 22.4287 131.331 22.916C131.557 23.4147 131.671 23.9473 131.671 24.5027V24.4913ZM129.699 24.4913C129.699 23.8567 129.449 23.256 128.996 22.8253C128.554 22.372 127.942 22.1227 127.307 22.1227C126.004 22.1227 124.95 23.1767 124.939 24.48C124.939 25.7833 125.993 26.8373 127.296 26.8487C127.931 26.8487 128.543 26.6107 128.985 26.1573C129.438 25.7267 129.699 25.126 129.687 24.4913H129.699ZM134.073 20.1053H136.079V36.3007H134.073V20.1053Z" fill="white"/>
<path d="M149.748 29.8407H145.453V32.2887H143.447V29.8407H138.981V28.0727H149.748V29.8407ZM140.081 36.0287V31.4047H142.087V34.2833H153.227V36.0287H140.081ZM148.32 23.664C148.32 24.174 148.218 24.6727 147.991 25.126C147.776 25.5793 147.481 25.976 147.13 26.3273C146.745 26.6673 146.314 26.9393 145.838 27.132C144.829 27.5287 143.707 27.5287 142.699 27.132C142.223 26.9393 141.792 26.6787 141.407 26.3273C141.044 25.9873 140.761 25.5793 140.545 25.126C140.115 24.1967 140.115 23.1313 140.545 22.202C140.761 21.7487 141.055 21.352 141.407 21.0007C141.792 20.6607 142.223 20.3887 142.699 20.196C143.707 19.7993 144.829 19.7993 145.838 20.196C146.314 20.3887 146.745 20.6607 147.13 21.0007C147.493 21.3407 147.776 21.7487 147.991 22.202C148.207 22.6553 148.32 23.154 148.32 23.664ZM146.371 23.664C146.371 23.1087 146.155 22.5873 145.747 22.2133C144.92 21.42 143.617 21.42 142.789 22.2133C141.985 22.9727 141.951 24.242 142.721 25.0467C142.744 25.0693 142.767 25.092 142.789 25.1147C143.617 25.908 144.92 25.908 145.747 25.1147C146.155 24.7407 146.382 24.2193 146.371 23.664ZM151.04 20.1053H153.046V32.4813H151.04V26.5087H148.785V24.7633H151.04V20.1053Z" fill="white"/>
<path d="M165.206 27.3813C165.206 27.8687 165.104 28.356 164.9 28.798C164.696 29.24 164.413 29.6367 164.05 29.9653C163.688 30.3053 163.257 30.566 162.781 30.7473C162.6 30.8153 162.43 30.872 162.237 30.9173V32.9687H166.702V34.7367H155.936V32.9687H160.231V30.9287C160.05 30.8833 159.868 30.8267 159.687 30.7587C159.222 30.5773 158.792 30.3167 158.418 29.9767C158.066 29.648 157.772 29.2513 157.568 28.8093C157.16 27.914 157.16 26.8827 157.568 25.9873C157.772 25.5453 158.055 25.1487 158.418 24.82C158.78 24.48 159.211 24.2193 159.687 24.038C160.684 23.664 161.784 23.664 162.77 24.038C163.234 24.2193 163.665 24.48 164.039 24.82C164.39 25.1487 164.685 25.5453 164.889 25.9873C165.093 26.4293 165.195 26.9053 165.195 27.3927L165.206 27.3813ZM160.152 21.726V19.992H162.328V21.726H166.181V23.46H156.287V21.726H160.152ZM163.257 27.3813C163.257 26.86 163.053 26.3613 162.668 26.01C162.294 25.636 161.772 25.4207 161.24 25.432C160.707 25.4207 160.197 25.6247 159.823 26.01C159.064 26.758 159.052 27.9707 159.8 28.73L159.823 28.7527C160.197 29.1267 160.707 29.342 161.24 29.3307C161.772 29.3307 162.282 29.138 162.668 28.7527C163.042 28.39 163.257 27.8913 163.257 27.37V27.3813ZM167.994 20.1053H170V36.3007H167.994V20.1053Z" fill="white"/>
</g>
<defs>
<clipPath id="clip0_79_2366">
<rect width="170" height="44.6193" fill="white"/>
</clipPath>
</defs>
</svg>
